<?xml version="1.0" standalone="no"?>
<!DOCTYPE svg PUBLIC "-//W3C//DTD SVG 20010904//EN"
 "http://www.w3.org/TR/2001/REC-SVG-20010904/DTD/svg10.dtd">
<svg version="1.0" xmlns="http://www.w3.org/2000/svg"
 width="1928.000000pt" height="1928.000000pt" viewBox="0 0 1928.000000 1928.000000"
 preserveAspectRatio="xMidYMid meet">
<metadata>
Created by potrace 1.14, written by Peter Selinger 2001-2017
</metadata>
<g transform="translate(0.000000,1928.000000) scale(0.100000,-0.100000)"
fill="#000000" stroke="none">
<path d="M2459 19276 c-2 -2 -49 -6 -104 -9 -189 -11 -474 -76 -696 -157 -162
-60 -435 -204 -555 -294 -23 -17 -52 -38 -64 -46 -111 -74 -318 -269 -431
-405 -40 -49 -76 -92 -79 -95 -15 -14 -104 -146 -152 -225 -109 -181 -204
-394 -267 -600 -43 -139 -88 -378 -99 -520 -11 -139 -9 -14508 2 -14595 93
-733 451 -1359 1021 -1785 325 -242 662 -388 1105 -477 l115 -23 7375 0 c7052
0 7380 1 7480 18 290 50 493 116 770 252 258 126 556 363 762 605 71 83 198
257 198 270 0 5 5 10 10 10 6 0 10 4 10 10 0 5 17 36 37 67 38 60 165 320 178
363 4 14 19 59 35 100 39 107 88 308 110 463 20 130 20 249 20 7437 -1 4402
-4 7333 -10 7375 -51 389 -169 729 -362 1043 -145 236 -351 474 -543 627 -27
22 -52 43 -55 46 -18 20 -177 129 -258 177 -128 76 -196 111 -317 162 -55 23
-109 45 -120 50 -75 34 -342 102 -485 124 -52 8 -113 18 -135 22 -39 8 -14488
18 -14496 10z"/>
</g>
</svg>
